<svg width="802" height="668" viewBox="0 0 802 668" fill="none" xmlns="http://www.w3.org/2000/svg">
    <path d="M167.333 634C130.513 634 100.667 604.153 100.667 567.333V444.85C100.667 428.543 100.667 420.39 98.8233 412.717C97.19 405.917 94.4967 399.413 90.8433 393.447C86.72 386.72 80.9533 380.953 69.4233 369.423L34 334L69.4233 298.577C80.9533 287.047 86.72 281.28 90.8433 274.553C94.4967 268.587 97.19 262.085 98.8233 255.282C100.667 247.61 100.667 239.457 100.667 223.151V100.667C100.667 63.8477 130.513 34 167.333 34" stroke="#4682B4" stroke-width="66.6667" stroke-linecap="round" stroke-linejoin="round"/>
    <path d="M635.333 634C672.153 634 702 604.153 702 567.333V444.85C702 428.543 702 420.39 703.843 412.717C705.477 405.917 708.17 399.413 711.823 393.447C715.947 386.72 721.713 380.953 733.243 369.423L768.667 334L733.243 298.577C721.713 287.047 715.947 281.28 711.823 274.553C708.17 268.587 705.477 262.085 703.843 255.282C702 247.61 702 239.457 702 223.151V100.667C702 63.8477 672.153 34 635.333 34" stroke="#4682B4" stroke-width="66.6667" stroke-linecap="round" stroke-linejoin="round"/>
    <circle cx="269.333" cy="448" r="30" fill="#4682B4"/>
    <circle cx="401.333" cy="448" r="30" fill="#4682B4"/>
    <circle cx="533.333" cy="448" r="30" fill="#4682B4"/>
</svg>
